<svg width="20" height="25" viewBox="0 0 20 25" fill="none" xmlns="http://www.w3.org/2000/svg">
<path fill-rule="evenodd" clip-rule="evenodd" d="M13.3259 14.9744C11.9651 15.9936 10.2762 16.5974 8.4471 16.5974C3.94908 16.5974 0.296997 12.9453 0.296997 8.4471C0.296997 3.94888 3.94908 0.296997 8.4471 0.296997C12.9453 0.296997 16.5974 3.94888 16.5974 8.4471C16.5974 10.2762 15.9936 11.9651 14.9744 13.3259L19.3617 17.7132C19.8168 18.1681 19.8168 18.9069 19.3617 19.3617C18.9069 19.8166 18.1681 19.8166 17.7132 19.3617L13.3259 14.9744V14.9744ZM14.4774 13.9277C14.3029 14.1196 14.1194 14.3031 13.9279 14.4774L18.2627 18.8122C18.4144 18.9639 18.6606 18.9639 18.8122 18.8122C18.9639 18.6606 18.9639 18.4144 18.8122 18.2627L14.4774 13.9277V13.9277ZM8.4471 1.07422C12.5164 1.07422 15.8202 4.37799 15.8202 8.4471C15.8202 12.5164 12.5164 15.8202 8.4471 15.8202C4.37799 15.8202 1.07422 12.5164 1.07422 8.4471C1.07422 4.37799 4.37799 1.07422 8.4471 1.07422V1.07422ZM8.4471 1.91224C4.84036 1.91224 1.91224 4.84036 1.91224 8.4471C1.91224 12.0538 4.84036 14.9821 8.4471 14.9821C12.0538 14.9821 14.9821 12.0538 14.9821 8.4471C14.9821 4.84036 12.0538 1.91224 8.4471 1.91224V1.91224ZM8.4471 2.68947C11.6249 2.68947 14.2049 5.26927 14.2049 8.4471C14.2049 11.6249 11.6249 14.2049 8.4471 14.2049C5.26927 14.2049 2.68947 11.6249 2.68947 8.4471C2.68947 5.26927 5.26927 2.68947 8.4471 2.68947V2.68947Z" fill="black"/>
</svg>
